<svg width="22" height="18" viewBox="0 0 22 18" fill="none" xmlns="http://www.w3.org/2000/svg">
<path d="M21.352 1.68485C20.0187 1.0943 18.6842 0.869629 17.3505 0.869629C13.1166 0.869266 8.88305 3.13236 4.64915 3.13236C3.58732 3.13236 2.52618 2.99008 1.46435 2.63437C1.34507 2.59444 1.22545 2.57557 1.10858 2.57557C0.516992 2.57557 0 3.05904 0 3.73016V15.2456C0 15.704 0.248527 16.1385 0.647615 16.3149C1.981 16.9058 3.31542 17.1305 4.64915 17.1305C8.88305 17.1305 13.117 14.8674 17.3509 14.8674C18.4127 14.8674 19.4738 15.0097 20.5356 15.3654C20.6549 15.4053 20.7745 15.4242 20.8914 15.4242C21.483 15.4242 22 14.9407 22 14.2696V2.75451C21.9997 2.29572 21.7511 1.86161 21.352 1.68485ZM1.64997 4.50727C2.34159 4.69021 3.06345 4.78204 3.80594 4.8314C3.60382 5.89816 2.71558 6.70213 1.64997 6.70213V4.50727ZM1.64997 14.8518V13.1175C2.83142 13.1175 3.78738 14.1074 3.83997 15.3462C3.06551 15.2805 2.34159 15.1171 1.64997 14.8518ZM10.9998 12.4845C9.48082 12.4845 8.24987 10.9241 8.24987 9.00006C8.24987 7.07562 9.48116 5.51559 10.9998 5.51559C12.5185 5.51559 13.7498 7.07562 13.7498 9.00006C13.7498 10.9249 12.5181 12.4845 10.9998 12.4845ZM20.3497 13.4929C19.7474 13.3335 19.1222 13.2442 18.4825 13.1865C18.6842 12.2399 19.4278 11.5212 20.3497 11.3978V13.4929ZM20.3497 4.92287C19.2879 4.78095 18.4639 3.84486 18.4312 2.68881C19.1029 2.76758 19.7406 2.91494 20.3497 3.14833V4.92287Z" fill="#0065FC"/>
</svg>
